# xmcd
#
# Track frame offsets:
#	150
#	12427
#	27269
#	41705
#	53952
#	70749
#	82283
#	98957
#
# Disc length: 1548 seconds
#
# Revision: 1
# Processed by: cddbd v1.5.1PL0 Copyright (c) Steve Scherf et al.
# Submitted via: audiograbber 1.83.01
#
DISCID=6a060a08
DTITLE=Victor SANZ - Hey Country
DYEAR=2004
DGENRE=Country
TTITLE0=It's Only Cause You're Lonely
TTITLE1=Tell Me What You Wanna Do
TTITLE2=I See A Woman
TTITLE3=Hello Walls
TTITLE4=Love Won't Let Me
TTITLE5=I Thnik I Like It
TTITLE6=Nobody Is To Blame
TTITLE7=Hey Country
EXTD=
EXTT0=
EXTT1=
EXTT2=
EXTT3=
EXTT4=
EXTT5=
EXTT6=
EXTT7=
PLAYORDER=
